<svg xmlns="http://www.w3.org/2000/svg" viewBox="0 0 100 60">
  <path d="M 20 30 Q 10 0 0 5 Q 10 30 0 55 Q 10 60 20 30 Z" fill="#cbd5e1"/>
  <path d="M 40 25 Q 50 -5 65 20 Z" fill="#94a3b8"/>
  <path d="M 45 40 Q 55 65 60 40 Z" fill="#94a3b8"/>
  <path d="M 95 30 C 95 0, 30 10, 20 30 C 30 50, 95 60, 95 30 Z" fill="#cbd5e1"/>
  <path d="M 90 35 C 90 55, 30 50, 20 35 C 40 40, 70 40, 90 35 Z" fill="#f8fafc"/>
  <circle cx="75" cy="22" r="4" fill="white"/>
  <circle cx="76" cy="22" r="2" fill="#ef4444"/>
  <path d="M 55 25 Q 50 30 55 35 M 60 25 Q 55 30 60 35 M 65 25 Q 60 30 65 35" stroke="#94a3b8" stroke-width="2" fill="none" stroke-linecap="round"/>
  <path d="M 50 35 Q 40 45 35 40 Q 50 30 55 32 Z" fill="#64748b"/>
  <path d="M 95 30 L 75 30" stroke="#1e293b" stroke-width="3" stroke-linecap="round"/>
</svg>
