<svg xmlns="http://www.w3.org/2000/svg" viewBox="0 0 100 100">
  <path d="M50 15 C 60 10, 65 25, 80 20 C 85 30, 75 40, 90 50 C 75 60, 85 80, 65 75 C 55 90, 45 80, 30 90 C 20 80, 5 70, 15 50 C 5 30, 20 25, 30 15 C 40 5, 45 20, 50 15 Z" fill="#66cc00" opacity="0.8"/>
  <circle cx="50" cy="50" r="15" fill="#4d9900" opacity="0.9" />
  <!-- Splatter dots -->
  <circle cx="20" cy="20" r="4" fill="#66cc00" opacity="0.8" />
  <circle cx="85" cy="80" r="3" fill="#66cc00" opacity="0.8" />
  <circle cx="25" cy="80" r="5" fill="#66cc00" opacity="0.8" />
  <circle cx="75" cy="15" r="4" fill="#66cc00" opacity="0.8" />
  <!-- Broken fly parts -->
  <line x1="45" y1="45" x2="35" y2="35" stroke="#333" stroke-width="3" stroke-linecap="round"/>
  <line x1="55" y1="55" x2="65" y2="70" stroke="#333" stroke-width="3" stroke-linecap="round"/>
  <!-- Wing remnant -->
  <ellipse cx="60" cy="40" rx="8" ry="15" fill="rgba(200, 230, 255, 0.4)" transform="rotate(45 60 40)" />
</svg>
