<svg xmlns="http://www.w3.org/2000/svg" viewBox="0 0 64 64" width="64" height="64">
  <defs>
    <radialGradient id="bg" cx="50%" cy="50%" r="50%">
      <stop offset="0%" stop-color="#2c1a0c"/>
      <stop offset="100%" stop-color="#120a05"/>
    </radialGradient>
    <linearGradient id="hat" x1="0" y1="0" x2="0" y2="1">
      <stop offset="0%" stop-color="#d7a15c"/>
      <stop offset="60%" stop-color="#a07038"/>
      <stop offset="100%" stop-color="#694317"/>
    </linearGradient>
    <linearGradient id="band" x1="0" y1="0" x2="1" y2="0">
      <stop offset="0%" stop-color="#b00"/>
      <stop offset="100%" stop-color="#600"/>
    </linearGradient>
  </defs>
  <circle cx="32" cy="32" r="31" fill="url(#bg)" stroke="#8c5828" stroke-width="1.5"/>
  <!-- Cowboy Hat Brim -->
  <path d="M12 36 C12 33, 20 31, 32 31 C44 31, 52 33, 52 36 C52 39, 44 42, 32 42 C20 42, 12 39, 12 36 Z" fill="url(#hat)" stroke="#52310f" stroke-width="1"/>
  <!-- Curved sides of the brim -->
  <path d="M10 35 C10 35, 14 38, 20 37 C26 36, 32 37, 32 37 C32 37, 38 36, 44 37 C50 38, 54 35, 54 35 C54 35, 51 32, 44 33 C37 34, 32 33, 32 33 C32 33, 27 34, 20 33 C13 32, 10 35, 10 35 Z" fill="#d7a15c" opacity="0.4"/>
  <!-- Cowboy Hat Crown -->
  <path d="M22 32 C22 24, 24 16, 32 18 C40 16, 42 24, 42 32 Z" fill="url(#hat)" stroke="#52310f" stroke-width="1"/>
  <!-- Crown fold crease highlight (indent at top) -->
  <path d="M28 18 C30 20, 34 20, 36 18 C34 22, 30 22, 28 18 Z" fill="#52310f"/>
  <!-- Red Band -->
  <path d="M21 32 C21 32, 26 34, 32 34 C38 34, 43 32, 43 32 C43 32, 42 30, 32 30 C22 30, 21 32, 21 32 Z" fill="url(#band)"/>
  <!-- Gold buckle on band -->
  <rect x="30" y="29.5" width="4" height="5" rx="1" fill="#ffd700" stroke="#b8860b" stroke-width="0.5"/>
  <rect x="31" y="31" width="2" height="2" fill="#52310f"/>
  <!-- Star badge in background -->
  <polygon points="52,14 53,17 56,17 53.5,19 54.5,22 52,20 49.5,22 50.5,19 48,17 51,17" fill="#ffd700" opacity="0.6"/>
</svg>
