<svg xmlns="http://www.w3.org/2000/svg" viewBox="0 0 64 64" width="64" height="64">
  <defs>
    <radialGradient id="bg" cx="50%" cy="50%" r="50%">
      <stop offset="0%" stop-color="#001d2d"/>
      <stop offset="100%" stop-color="#000c14"/>
    </radialGradient>
    <radialGradient id="glow" cx="50%" cy="50%" r="50%">
      <stop offset="0%" stop-color="#00e5ff" stop-opacity="0.3"/>
      <stop offset="100%" stop-color="#00e5ff" stop-opacity="0"/>
    </radialGradient>
  </defs>
  <circle cx="32" cy="32" r="31" fill="url(#bg)" stroke="#00e5ff" stroke-width="1.5"/>
  <circle cx="32" cy="32" r="24" fill="url(#glow)"/>
  <!-- Diamond Facets -->
  <!-- Top flat crown -->
  <polygon points="20,20 44,20 49,28 15,28" fill="#e0faff" stroke="#00e5ff" stroke-width="1"/>
  <!-- Top Center Triangle -->
  <polygon points="32,20 44,20 38,28 32,28" fill="#a6f2ff" stroke="#00e5ff" stroke-width="1"/>
  <polygon points="32,20 20,20 26,28 32,28" fill="#a6f2ff" stroke="#00e5ff" stroke-width="1"/>
  <polygon points="32,20 26,28 38,28" fill="#d0f7ff" stroke="#00e5ff" stroke-width="1"/>
  <!-- Side Triangles -->
  <polygon points="20,20 15,28 26,28" fill="#7be5ff" stroke="#00e5ff" stroke-width="1"/>
  <polygon points="44,20 49,28 38,28" fill="#7be5ff" stroke="#00e5ff" stroke-width="1"/>
  <!-- Bottom main pavilion facets -->
  <polygon points="15,28 49,28 32,50" fill="#3cd5ff" stroke="#00e5ff" stroke-width="1"/>
  <polygon points="15,28 26,28 32,50" fill="#00b5e2" stroke="#00e5ff" stroke-width="1"/>
  <polygon points="49,28 38,28 32,50" fill="#00b5e2" stroke="#00e5ff" stroke-width="1"/>
  <polygon points="26,28 38,28 32,50" fill="#6fe3ff" stroke="#00e5ff" stroke-width="1"/>
  <!-- Sparkles -->
  <polygon points="46,14 47,17 50,17 47.5,19 48.5,22 46,20 43.5,22 44.5,19 42,17 45,17" fill="white" opacity="0.9"/>
  <polygon points="16,44 17,46 19,46 17.5,47.5 18,49.5 16,48 14,49.5 14.5,47.5 13,46 15,46" fill="white" opacity="0.7"/>
</svg>
