<svg xmlns="http://www.w3.org/2000/svg" viewBox="0 0 64 64" width="64" height="64">
  <defs>
    <radialGradient id="bg" cx="50%" cy="50%" r="50%">
      <stop offset="0%" stop-color="#001a00"/>
      <stop offset="100%" stop-color="#000a00"/>
    </radialGradient>
    <radialGradient id="glow" cx="50%" cy="50%" r="50%">
      <stop offset="0%" stop-color="#00ff44" stop-opacity="0.15"/>
      <stop offset="100%" stop-color="#00ff44" stop-opacity="0"/>
    </radialGradient>
  </defs>
  <circle cx="32" cy="32" r="31" fill="url(#bg)" stroke="#003311" stroke-width="1.5"/>
  <circle cx="32" cy="32" r="29" fill="url(#glow)"/>
  <!-- Target rings -->
  <circle cx="32" cy="32" r="26" fill="none" stroke="#cc2200" stroke-width="5"/>
  <circle cx="32" cy="32" r="22" fill="#1a1a1a" stroke="none"/>
  <circle cx="32" cy="32" r="20" fill="none" stroke="#ffffff" stroke-width="4"/>
  <circle cx="32" cy="32" r="16" fill="#1a1a1a" stroke="none"/>
  <circle cx="32" cy="32" r="14" fill="none" stroke="#cc2200" stroke-width="4"/>
  <circle cx="32" cy="32" r="10" fill="#1a1a1a" stroke="none"/>
  <circle cx="32" cy="32" r="8" fill="none" stroke="#ffffff" stroke-width="3"/>
  <circle cx="32" cy="32" r="4" fill="#1a1a1a" stroke="none"/>
  <!-- Bullseye center -->
  <circle cx="32" cy="32" r="4" fill="#cc2200"/>
  <circle cx="32" cy="32" r="2" fill="#ff6644"/>
  <!-- Crosshair lines -->
  <line x1="32" y1="4" x2="32" y2="12" stroke="#00ff44" stroke-width="1.5" stroke-linecap="round" opacity="0.7"/>
  <line x1="32" y1="52" x2="32" y2="60" stroke="#00ff44" stroke-width="1.5" stroke-linecap="round" opacity="0.7"/>
  <line x1="4" y1="32" x2="12" y2="32" stroke="#00ff44" stroke-width="1.5" stroke-linecap="round" opacity="0.7"/>
  <line x1="52" y1="32" x2="60" y2="32" stroke="#00ff44" stroke-width="1.5" stroke-linecap="round" opacity="0.7"/>
</svg>
